<?xml version="1.0" encoding="utf-8"?>
<!-- Generator: Adobe Illustrator 27.5.0, SVG Export Plug-In . SVG Version: 6.00 Build 0)  -->
<svg version="1.1" id="Layer_1" xmlns="http://www.w3.org/2000/svg" xmlns:xlink="http://www.w3.org/1999/xlink" x="0px" y="0px"
	 viewBox="0 0 2000 2000" style="enable-background:new 0 0 2000 2000;" xml:space="preserve">
<rect style="fill:#FFFFFF;" width="2000" height="2000"/>
<g>
	<path style="fill:#CC0000;" d="M1458.285,384.477l-209.311,219.848c-72.006-45.317-157.19-71.543-248.551-71.543
		c-161.121,0-303.216,81.584-387.211,205.678L403.537,518.216c140.609-174.002,355.734-285.314,596.886-285.314
		C1172.047,232.902,1330.492,289.252,1458.285,384.477z"/>
	<path style="fill:#29ABE2;" d="M1767.512,999.959c0,51.329-5.087,101.468-14.698,149.956
		c-38.084,192.169-147.942,358.475-300.474,469.885l-209.708-220.244c93.112-56.548,164.886-144.738,200.426-249.641h-427.409
		v-299.88h737.164C1762.425,898.524,1767.512,948.664,1767.512,999.959z"/>
	<path style="fill:#FCEE21;" d="M617.472,1267.602l-209.344,219.848c-109.197-132.549-174.762-302.357-174.762-487.49
		c0-182.491,63.748-350.052,170.171-481.743L613.211,738.46c-50.503,74.615-79.999,164.622-79.999,261.499
		C533.213,1099.512,564.393,1191.798,617.472,1267.602z"/>
	<path style="fill:#39B54A;" d="M1452.339,1619.801c-126.769,92.583-282.935,147.248-451.917,147.248
		c-238.51,0-451.587-108.867-592.295-279.599l209.344-219.848c84.458,120.659,224.472,199.567,382.95,199.567
		c88.686,0,171.591-24.706,242.209-67.612L1452.339,1619.801z"/>
</g>
</svg>
