<svg xmlns="http://www.w3.org/2000/svg" xmlns:xlink="http://www.w3.org/1999/xlink" width="1080" zoomAndPan="magnify" viewBox="0 0 810 1439.999935" height="1920" preserveAspectRatio="xMidYMid meet" version="1.0"><path fill="#000000" d="M 376.8125 816.722656 C 374.28125 816.726562 371.753906 816.648438 369.226562 816.496094 C 366.703125 816.339844 364.183594 816.109375 361.671875 815.800781 C 359.164062 815.492188 356.664062 815.109375 354.175781 814.644531 C 351.6875 814.183594 349.21875 813.644531 346.761719 813.03125 C 344.308594 812.417969 341.875 811.730469 339.460938 810.964844 C 337.050781 810.203125 334.664062 809.367188 332.304688 808.457031 C 329.941406 807.546875 327.613281 806.566406 325.3125 805.511719 C 323.011719 804.460938 320.746094 803.339844 318.511719 802.144531 C 316.28125 800.953125 314.089844 799.695312 311.933594 798.367188 C 309.777344 797.042969 307.667969 795.652344 305.597656 794.195312 C 303.53125 792.738281 301.507812 791.21875 299.53125 789.640625 C 297.554688 788.058594 295.628906 786.417969 293.753906 784.722656 C 291.878906 783.023438 290.058594 781.269531 288.292969 779.457031 C 286.523438 777.648438 284.8125 775.785156 283.160156 773.867188 C 281.507812 771.953125 279.914062 769.988281 278.382812 767.976562 C 276.851562 765.960938 275.382812 763.90625 273.976562 761.800781 C 272.570312 759.699219 271.230469 757.554688 269.957031 755.367188 C 268.679688 753.183594 267.476562 750.960938 266.335938 748.699219 C 265.199219 746.441406 264.132812 744.148438 263.136719 741.820312 C 262.136719 739.496094 261.214844 737.144531 260.359375 734.761719 C 259.507812 732.378906 258.730469 729.972656 258.023438 727.542969 C 257.320312 725.113281 256.691406 722.664062 256.136719 720.195312 C 255.582031 717.726562 255.101562 715.242188 254.699219 712.746094 C 254.296875 710.246094 253.972656 707.738281 253.726562 705.222656 C 253.476562 702.703125 253.304688 700.179688 253.214844 697.652344 C 253.121094 695.125 253.105469 692.597656 253.167969 690.066406 C 253.230469 687.539062 253.367188 685.011719 253.585938 682.492188 C 253.804688 679.972656 254.097656 677.460938 254.46875 674.957031 C 254.839844 672.453125 255.289062 669.964844 255.8125 667.488281 C 256.335938 665.015625 256.9375 662.558594 257.609375 660.121094 C 258.285156 657.679688 259.035156 655.265625 259.859375 652.875 C 260.679688 650.480469 261.578125 648.117188 262.546875 645.777344 C 263.515625 643.441406 264.554688 641.136719 265.664062 638.863281 C 266.773438 636.589844 267.953125 634.351562 269.199219 632.152344 C 270.445312 629.949219 271.761719 627.789062 273.140625 625.667969 C 274.519531 623.546875 275.964844 621.472656 277.472656 619.441406 C 278.980469 617.410156 280.546875 615.425781 282.175781 613.488281 C 283.808594 611.554688 285.496094 609.667969 287.238281 607.835938 C 288.984375 606.003906 290.785156 604.230469 292.636719 602.507812 C 294.492188 600.785156 296.398438 599.125 298.351562 597.519531 C 300.308594 595.914062 302.3125 594.371094 304.363281 592.890625 C 306.414062 591.410156 308.507812 589.992188 310.648438 588.636719 C 312.785156 587.285156 314.960938 586 317.179688 584.78125 C 319.394531 583.5625 321.648438 582.410156 323.9375 581.328125 C 326.222656 580.25 328.542969 579.238281 330.890625 578.300781 C 333.242188 577.363281 335.617188 576.496094 338.019531 575.703125 C 340.421875 574.910156 342.847656 574.191406 345.292969 573.550781 C 347.742188 572.90625 350.203125 572.335938 352.6875 571.84375 C 355.167969 571.351562 357.664062 570.9375 360.167969 570.597656 C 362.675781 570.257812 365.191406 569.996094 367.714844 569.808594 C 370.238281 569.625 372.765625 569.519531 375.292969 569.488281 C 377.824219 569.457031 380.351562 569.503906 382.878906 569.632812 C 385.40625 569.757812 387.925781 569.960938 390.441406 570.238281 C 392.957031 570.519531 395.460938 570.875 397.953125 571.3125 C 400.445312 571.746094 402.921875 572.253906 405.382812 572.839844 C 407.84375 573.425781 410.285156 574.085938 412.707031 574.824219 C 415.125 575.558594 417.523438 576.367188 419.894531 577.25 C 422.265625 578.132812 424.605469 579.089844 426.917969 580.117188 C 429.230469 581.140625 431.507812 582.238281 433.753906 583.40625 C 436 584.570312 438.207031 585.804688 440.375 587.109375 C 442.546875 588.410156 444.671875 589.777344 446.757812 591.210938 C 448.84375 592.644531 450.882812 594.140625 452.875 595.695312 C 454.871094 597.253906 456.8125 598.871094 458.707031 600.550781 C 460.601562 602.226562 462.441406 603.960938 464.230469 605.75 C 466.378906 607.894531 468.445312 610.117188 470.429688 612.414062 C 472.414062 614.710938 474.308594 617.082031 476.117188 619.519531 C 477.929688 621.953125 479.644531 624.457031 481.269531 627.019531 C 482.898438 629.582031 484.425781 632.203125 485.855469 634.878906 C 487.289062 637.558594 488.621094 640.28125 489.851562 643.058594 C 491.082031 645.832031 492.210938 648.648438 493.234375 651.507812 C 494.257812 654.363281 495.175781 657.257812 495.984375 660.183594 C 496.796875 663.109375 497.5 666.058594 498.089844 669.035156 C 498.683594 672.015625 499.167969 675.007812 499.539062 678.023438 C 499.910156 681.035156 500.171875 684.058594 500.320312 687.089844 C 500.472656 690.121094 500.507812 693.15625 500.433594 696.1875 C 500.359375 699.222656 500.175781 702.253906 499.875 705.273438 C 499.578125 708.292969 499.171875 711.300781 498.652344 714.292969 C 498.132812 717.28125 497.503906 720.25 496.765625 723.195312 C 496.03125 726.140625 495.183594 729.054688 494.230469 731.9375 C 493.28125 734.816406 492.222656 737.660156 491.058594 740.464844 C 489.898438 743.269531 488.632812 746.027344 487.269531 748.738281 C 485.902344 751.453125 484.441406 754.109375 482.878906 756.710938 C 481.316406 759.316406 479.664062 761.859375 477.914062 764.339844 C 476.164062 766.820312 474.328125 769.234375 472.402344 771.582031 C 470.476562 773.925781 468.464844 776.199219 466.371094 778.398438 C 464.277344 780.59375 462.105469 782.714844 459.855469 784.75 C 457.605469 786.789062 455.28125 788.742188 452.886719 790.605469 C 450.492188 792.472656 448.035156 794.25 445.507812 795.933594 C 442.984375 797.621094 440.402344 799.210938 437.757812 800.707031 C 435.117188 802.199219 432.421875 803.597656 429.679688 804.890625 C 426.933594 806.1875 424.144531 807.382812 421.3125 808.472656 C 418.476562 809.5625 415.609375 810.550781 412.703125 811.429688 C 409.796875 812.308594 406.863281 813.078125 403.902344 813.742188 C 400.9375 814.40625 397.957031 814.957031 394.953125 815.402344 C 391.949219 815.84375 388.933594 816.175781 385.90625 816.398438 C 382.878906 816.617188 379.847656 816.726562 376.8125 816.722656 Z M 376.8125 596.71875 C 374.96875 596.710938 373.128906 596.761719 371.289062 596.863281 C 369.445312 596.964844 367.613281 597.117188 365.78125 597.324219 C 363.949219 597.53125 362.125 597.789062 360.308594 598.101562 C 358.492188 598.414062 356.6875 598.777344 354.890625 599.191406 C 353.097656 599.605469 351.3125 600.070312 349.542969 600.585938 C 347.777344 601.105469 346.023438 601.671875 344.285156 602.289062 C 342.550781 602.90625 340.832031 603.574219 339.136719 604.289062 C 337.4375 605.003906 335.761719 605.765625 334.105469 606.578125 C 332.453125 607.390625 330.824219 608.25 329.21875 609.15625 C 327.613281 610.058594 326.035156 611.011719 324.484375 612.007812 C 322.933594 613 321.410156 614.039062 319.921875 615.125 C 318.429688 616.207031 316.96875 617.332031 315.542969 618.496094 C 314.117188 619.664062 312.726562 620.871094 311.367188 622.117188 C 310.011719 623.363281 308.6875 624.648438 307.40625 625.96875 C 306.121094 627.289062 304.875 628.648438 303.671875 630.042969 C 302.464844 631.433594 301.300781 632.859375 300.175781 634.320312 C 299.050781 635.78125 297.96875 637.273438 296.929688 638.792969 C 295.890625 640.316406 294.898438 641.867188 293.945312 643.445312 C 292.996094 645.023438 292.09375 646.628906 291.234375 648.261719 C 290.375 649.890625 289.566406 651.546875 288.804688 653.222656 C 288.039062 654.902344 287.324219 656.597656 286.660156 658.316406 C 285.992188 660.035156 285.378906 661.769531 284.8125 663.523438 C 284.246094 665.277344 283.730469 667.046875 283.265625 668.828125 C 282.796875 670.613281 282.386719 672.40625 282.023438 674.214844 C 281.660156 676.023438 281.351562 677.835938 281.09375 679.660156 C 280.835938 681.488281 280.628906 683.316406 280.476562 685.152344 C 280.324219 686.988281 280.222656 688.828125 280.175781 690.671875 C 280.125 692.511719 280.132812 694.355469 280.191406 696.199219 C 280.246094 698.039062 280.359375 699.878906 280.519531 701.714844 C 280.683594 703.550781 280.898438 705.378906 281.167969 707.203125 C 281.4375 709.023438 281.757812 710.839844 282.128906 712.644531 C 282.5 714.449219 282.925781 716.242188 283.398438 718.023438 C 283.875 719.800781 284.398438 721.566406 284.976562 723.320312 C 285.550781 725.070312 286.175781 726.800781 286.851562 728.515625 C 287.527344 730.230469 288.25 731.925781 289.023438 733.597656 C 289.796875 735.269531 290.617188 736.921875 291.484375 738.546875 C 292.351562 740.171875 293.261719 741.773438 294.222656 743.347656 C 295.179688 744.921875 296.183594 746.464844 297.230469 747.980469 C 298.277344 749.496094 299.367188 750.984375 300.5 752.4375 C 301.632812 753.890625 302.804688 755.3125 304.019531 756.699219 C 305.230469 758.085938 306.484375 759.433594 307.777344 760.75 C 309.066406 762.066406 310.394531 763.339844 311.757812 764.582031 C 313.125 765.820312 314.523438 767.015625 315.957031 768.175781 C 317.386719 769.335938 318.851562 770.453125 320.351562 771.527344 C 321.847656 772.601562 323.375 773.632812 324.929688 774.617188 C 326.488281 775.605469 328.070312 776.546875 329.679688 777.445312 C 331.289062 778.339844 332.925781 779.1875 334.582031 779.992188 C 336.242188 780.792969 337.921875 781.550781 339.625 782.253906 C 341.328125 782.960938 343.046875 783.617188 344.785156 784.226562 C 346.527344 784.835938 348.28125 785.390625 350.054688 785.898438 C 351.824219 786.40625 353.609375 786.863281 355.40625 787.265625 C 357.207031 787.671875 359.015625 788.023438 360.832031 788.324219 C 362.648438 788.625 364.476562 788.875 366.308594 789.070312 C 368.140625 789.269531 369.976562 789.414062 371.816406 789.503906 C 373.65625 789.59375 375.5 789.632812 377.339844 789.621094 C 379.183594 789.605469 381.023438 789.539062 382.863281 789.417969 C 384.703125 789.296875 386.535156 789.125 388.367188 788.902344 C 390.195312 788.675781 392.015625 788.398438 393.828125 788.070312 C 395.640625 787.742188 397.445312 787.359375 399.234375 786.925781 C 401.027344 786.496094 402.804688 786.011719 404.566406 785.476562 C 406.332031 784.941406 408.078125 784.359375 409.808594 783.722656 C 411.539062 783.089844 413.25 782.40625 414.941406 781.671875 C 416.632812 780.941406 418.300781 780.160156 419.945312 779.332031 C 421.59375 778.503906 423.214844 777.628906 424.808594 776.707031 C 426.40625 775.785156 427.972656 774.820312 429.515625 773.808594 C 431.054688 772.796875 432.566406 771.742188 434.046875 770.644531 C 435.527344 769.546875 436.972656 768.410156 438.386719 767.226562 C 439.804688 766.046875 441.183594 764.828125 442.527344 763.566406 C 443.875 762.308594 445.179688 761.011719 446.453125 759.675781 C 447.722656 758.339844 448.953125 756.972656 450.144531 755.566406 C 451.339844 754.160156 452.488281 752.722656 453.597656 751.25 C 454.707031 749.78125 455.773438 748.277344 456.796875 746.746094 C 457.824219 745.214844 458.800781 743.652344 459.734375 742.066406 C 460.667969 740.476562 461.558594 738.863281 462.398438 737.222656 C 463.242188 735.585938 464.035156 733.921875 464.78125 732.238281 C 465.527344 730.550781 466.226562 728.847656 466.875 727.121094 C 467.523438 725.398438 468.121094 723.65625 468.671875 721.898438 C 469.21875 720.136719 469.71875 718.363281 470.164062 716.578125 C 470.613281 714.789062 471.007812 712.988281 471.351562 711.179688 C 471.695312 709.367188 471.988281 707.550781 472.226562 705.722656 C 472.46875 703.894531 472.65625 702.0625 472.789062 700.226562 C 472.925781 698.386719 473.007812 696.546875 473.035156 694.703125 C 473.066406 692.863281 473.042969 691.019531 472.964844 689.179688 C 472.890625 687.339844 472.761719 685.5 472.578125 683.667969 C 472.398438 681.832031 472.164062 680.003906 471.875 678.183594 C 471.589844 676.363281 471.253906 674.554688 470.863281 672.753906 C 470.472656 670.953125 470.03125 669.164062 469.539062 667.386719 C 469.046875 665.613281 468.503906 663.851562 467.910156 662.105469 C 467.316406 660.363281 466.671875 658.636719 465.980469 656.929688 C 465.289062 655.222656 464.546875 653.535156 463.757812 651.871094 C 462.96875 650.203125 462.132812 648.5625 461.25 646.945312 C 460.367188 645.328125 459.4375 643.738281 458.464844 642.171875 C 457.488281 640.609375 456.472656 639.074219 455.410156 637.566406 C 454.347656 636.0625 453.242188 634.589844 452.09375 633.144531 C 450.949219 631.703125 449.761719 630.292969 448.535156 628.921875 C 447.304688 627.546875 446.039062 626.207031 444.734375 624.90625 C 442.511719 622.679688 440.183594 620.570312 437.75 618.570312 C 435.320312 616.574219 432.796875 614.699219 430.179688 612.953125 C 427.566406 611.203125 424.871094 609.585938 422.09375 608.101562 C 419.320312 606.613281 416.480469 605.269531 413.574219 604.0625 C 410.667969 602.855469 407.710938 601.796875 404.699219 600.878906 C 401.6875 599.964844 398.640625 599.199219 395.554688 598.582031 C 392.46875 597.964844 389.359375 597.5 386.226562 597.1875 C 383.097656 596.878906 379.957031 596.71875 376.8125 596.71875 Z M 376.8125 596.71875 " fill-opacity="1" fill-rule="nonzero"/><path fill="#000000" d="M 552.054688 882 C 550.257812 881.992188 548.527344 881.640625 546.871094 880.945312 C 545.210938 880.253906 543.746094 879.269531 542.480469 877.992188 L 445.007812 780.589844 C 444.375 779.957031 443.8125 779.269531 443.316406 778.527344 C 442.820312 777.785156 442.402344 777.003906 442.0625 776.179688 C 441.71875 775.355469 441.460938 774.503906 441.289062 773.628906 C 441.113281 772.753906 441.027344 771.871094 441.027344 770.976562 C 441.027344 770.085938 441.113281 769.199219 441.289062 768.324219 C 441.460938 767.449219 441.71875 766.601562 442.0625 765.777344 C 442.402344 764.949219 442.820312 764.167969 443.316406 763.425781 C 443.8125 762.683594 444.375 761.996094 445.007812 761.367188 C 445.636719 760.734375 446.324219 760.171875 447.066406 759.675781 C 447.808594 759.179688 448.59375 758.761719 449.417969 758.417969 C 450.242188 758.078125 451.089844 757.820312 451.96875 757.644531 C 452.84375 757.472656 453.726562 757.386719 454.617188 757.386719 C 455.511719 757.386719 456.394531 757.472656 457.269531 757.644531 C 458.144531 757.820312 458.996094 758.078125 459.820312 758.417969 C 460.644531 758.761719 461.429688 759.179688 462.171875 759.675781 C 462.914062 760.171875 463.597656 760.734375 464.230469 761.367188 L 561.632812 858.835938 C 562.578125 859.789062 563.363281 860.855469 563.992188 862.035156 C 564.621094 863.21875 565.066406 864.464844 565.328125 865.78125 C 565.585938 867.09375 565.648438 868.417969 565.519531 869.75 C 565.386719 871.082031 565.066406 872.367188 564.554688 873.605469 C 564.042969 874.84375 563.363281 875.980469 562.515625 877.015625 C 561.664062 878.054688 560.6875 878.945312 559.574219 879.691406 C 558.460938 880.4375 557.265625 881.007812 555.984375 881.402344 C 554.707031 881.796875 553.394531 881.996094 552.054688 882 Z M 552.054688 882 " fill-opacity="1" fill-rule="nonzero"/></svg>