<svg xmlns="http://www.w3.org/2000/svg" xmlns:xlink="http://www.w3.org/1999/xlink" width="1080" zoomAndPan="magnify" viewBox="0 0 810 1012.49997" height="1350" preserveAspectRatio="xMidYMid meet" version="1.0"><defs><clipPath id="e51af7b2d9"><path d="M 243.078125 377 L 566.921875 377 L 566.921875 667.304688 L 243.078125 667.304688 Z M 243.078125 377 " clip-rule="nonzero"/></clipPath></defs><path fill="#c45b52" d="M 455.855469 569.242188 L 405.207031 567.113281 C 405.207031 567.113281 339.75 590.707031 316.789062 555.003906 C 287.960938 510.179688 321.398438 488.417969 336.996094 473.867188 C 350.253906 461.5 348.113281 426.195312 348.246094 423.710938 C 348.226562 389.398438 354.101562 368.878906 373.167969 357.625 C 394.117188 345.257812 412.671875 349.007812 412.671875 349.007812 C 412.671875 349.007812 435.0625 346.804688 448.871094 368.445312 C 458.285156 383.203125 461.628906 402.972656 462.605469 423.671875 C 466.210938 500.230469 499.160156 479.535156 503.792969 521.78125 C 507.753906 557.898438 455.855469 569.242188 455.855469 569.242188 Z M 267.921875 592.683594 L 272.355469 593.199219 C 272.9375 593.246094 273.394531 593.722656 273.421875 594.320312 L 274.148438 609.949219 L 274.019531 612.976562 L 274.230469 613.296875 C 274.230469 613.296875 266.539062 633.527344 262.171875 646.585938 L 295.066406 646.742188 C 290.753906 635.097656 282.039062 613.613281 281.867188 613.242188 L 282.054688 594.03125 C 282.058594 593.433594 282.5 592.9375 283.082031 592.871094 L 287.859375 592.277344 C 288.3125 592.226562 288.695312 591.90625 288.832031 591.464844 L 290.074219 589.355469 C 290.3125 588.59375 289.75 587.820312 288.96875 587.824219 L 267.710938 587.90625 C 267.039062 587.910156 266.515625 588.5 266.570312 589.183594 L 266.855469 591.605469 C 266.90625 592.183594 267.355469 592.640625 267.921875 592.683594 Z M 267.921875 592.683594 " fill-opacity="1" fill-rule="nonzero"/><path fill="#0e7658" d="M 493.359375 648.179688 C 455.777344 644.574219 354.515625 644.574219 316.933594 648.179688 C 280.382812 636.847656 298.660156 591.761719 306.5625 559.707031 C 306.5625 559.707031 312.261719 516.042969 325.691406 500.972656 C 339.121094 485.902344 368.902344 482.582031 368.902344 482.582031 C 371.277344 488.296875 375.582031 492.707031 380.421875 496.074219 C 387.058594 500.691406 394.65625 503.242188 402.355469 503.738281 C 402.679688 503.757812 403 503.78125 403.324219 503.792969 C 403.621094 503.804688 403.917969 503.8125 404.214844 503.816406 C 404.527344 503.824219 404.835938 503.832031 405.148438 503.832031 C 405.457031 503.832031 405.769531 503.824219 406.078125 503.816406 C 406.375 503.8125 406.675781 503.804688 406.972656 503.792969 C 407.292969 503.78125 407.617188 503.757812 407.941406 503.738281 C 415.640625 503.238281 423.238281 500.691406 429.875 496.074219 C 434.710938 492.707031 439.019531 488.296875 441.394531 482.582031 C 441.394531 482.582031 471.175781 485.902344 484.605469 500.972656 C 498.035156 516.042969 503.734375 559.707031 503.734375 559.707031 C 511.636719 591.761719 529.910156 636.847656 493.359375 648.179688 Z M 493.359375 648.179688 C 455.777344 644.574219 354.515625 644.574219 316.933594 648.179688 C 280.382812 636.847656 298.660156 591.761719 306.5625 559.707031 C 306.5625 559.707031 312.261719 516.042969 325.691406 500.972656 C 339.121094 485.902344 368.902344 482.582031 368.902344 482.582031 C 371.277344 488.296875 375.582031 492.707031 380.421875 496.074219 C 387.058594 500.691406 394.65625 503.242188 402.355469 503.738281 C 402.679688 503.757812 403 503.78125 403.324219 503.792969 C 403.621094 503.804688 403.917969 503.8125 404.214844 503.816406 C 404.527344 503.824219 404.835938 503.832031 405.148438 503.832031 C 405.457031 503.832031 405.769531 503.824219 406.078125 503.816406 C 406.375 503.8125 406.675781 503.804688 406.972656 503.792969 C 407.292969 503.78125 407.617188 503.757812 407.941406 503.738281 C 415.640625 503.238281 423.238281 500.691406 429.875 496.074219 C 434.710938 492.707031 439.019531 488.296875 441.394531 482.582031 C 441.394531 482.582031 471.175781 485.902344 484.605469 500.972656 C 498.035156 516.042969 503.734375 559.707031 503.734375 559.707031 C 511.636719 591.761719 529.910156 636.847656 493.359375 648.179688 Z M 493.359375 648.179688 " fill-opacity="1" fill-rule="nonzero"/><path fill="#f3d4b7" d="M 301.796875 519.113281 L 507.625 519.113281 C 509.199219 519.113281 510.40625 520.371094 510.179688 521.769531 L 490.683594 648.179688 L 318.738281 648.179688 L 299.242188 521.769531 C 299.011719 520.371094 300.222656 519.113281 301.796875 519.113281 Z M 301.796875 519.113281 L 507.625 519.113281 C 509.199219 519.113281 510.40625 520.371094 510.179688 521.769531 L 490.683594 648.179688 L 318.738281 648.179688 L 299.242188 521.769531 C 299.011719 520.371094 300.222656 519.113281 301.796875 519.113281 Z M 301.796875 519.113281 " fill-opacity="1" fill-rule="nonzero"/><g clip-path="url(#e51af7b2d9)"><path fill="#feac7c" d="M 370.53125 428.695312 C 372.8125 436.941406 377.652344 446.046875 387.765625 451.003906 L 387.765625 469.367188 C 387.765625 473.621094 384.984375 477.375 380.917969 478.613281 L 368.902344 482.582031 C 371.277344 488.296875 375.582031 492.707031 380.421875 496.074219 C 395.296875 506.425781 414.996094 506.425781 429.871094 496.074219 C 434.710938 492.707031 439.015625 488.296875 441.390625 482.582031 L 426.863281 477.695312 C 424.585938 477 423.027344 474.898438 423.027344 472.515625 L 423.027344 450.5 C 430.664062 446.011719 435.570312 438.199219 438.714844 428.3125 C 446.054688 430.835938 451.382812 418.460938 448.476562 413.117188 C 445.535156 407.707031 440.988281 411.566406 440.988281 411.566406 C 431.71875 412.636719 420.195312 391.828125 417.589844 378.246094 C 417.511719 377.832031 416.964844 377.78125 416.816406 378.175781 C 409.132812 398.691406 381.785156 419.851562 370.234375 411.660156 C 370.234375 411.660156 365.425781 407.707031 362.484375 413.117188 C 359.769531 418.109375 361.257812 429.148438 370.53125 428.695312 Z M 243.375 647.722656 L 243.082031 662.554688 C 243.054688 663.804688 244.058594 664.835938 245.308594 664.847656 L 564.628906 667.132812 C 565.90625 667.140625 566.9375 666.078125 566.886719 664.796875 L 566.289062 649.203125 C 566.242188 648 565.257812 647.050781 564.054688 647.042969 L 245.632812 645.519531 C 244.40625 645.511719 243.402344 646.492188 243.375 647.722656 Z M 243.375 647.722656 " fill-opacity="1" fill-rule="nonzero"/></g><path fill="#000000" d="M 400.839844 580.324219 C 400.839844 582.777344 402.574219 584.773438 404.710938 584.773438 C 406.847656 584.773438 408.582031 582.777344 408.582031 580.324219 C 408.582031 577.867188 406.847656 575.871094 404.710938 575.871094 C 402.574219 575.871094 400.839844 577.867188 400.839844 580.324219 Z M 407.101562 580.324219 C 407.101562 581.960938 406.03125 583.292969 404.710938 583.292969 C 403.390625 583.292969 402.316406 581.960938 402.316406 580.324219 C 402.316406 578.683594 403.390625 577.351562 404.710938 577.351562 C 406.03125 577.351562 407.101562 578.683594 407.101562 580.324219 Z M 562.773438 653.496094 C 553.160156 653.359375 543.542969 653.253906 533.929688 653.15625 C 522.113281 653.042969 510.300781 652.945312 498.484375 652.859375 C 486.050781 652.773438 473.617188 652.703125 461.183594 652.652344 C 449.628906 652.605469 438.078125 652.574219 426.523438 652.578125 C 417.355469 652.582031 408.183594 652.601562 399.015625 652.691406 C 398.132812 652.703125 397.246094 652.710938 396.363281 652.722656 C 395.410156 652.734375 395.40625 654.214844 396.363281 654.203125 C 405.125 654.097656 413.886719 654.074219 422.652344 654.0625 C 434.03125 654.050781 445.410156 654.074219 456.785156 654.117188 C 469.195312 654.160156 481.601562 654.226562 494.011719 654.3125 C 505.953125 654.390625 517.890625 654.488281 529.832031 654.601562 C 539.800781 654.695312 549.769531 654.800781 559.738281 654.933594 C 560.75 654.949219 561.761719 654.960938 562.773438 654.976562 C 563.726562 654.988281 563.726562 653.507812 562.773438 653.496094 Z M 436.515625 659.292969 C 425.714844 659.386719 414.914062 659.40625 404.113281 659.414062 C 390.433594 659.421875 376.75 659.394531 363.070312 659.351562 C 348.566406 659.304688 334.058594 659.234375 319.554688 659.144531 C 306.320312 659.058594 293.082031 658.960938 279.847656 658.828125 C 269.875 658.726562 259.90625 658.621094 249.933594 658.441406 C 249.019531 658.425781 248.109375 658.40625 247.195312 658.390625 C 246.242188 658.371094 246.242188 659.851562 247.195312 659.871094 C 256.652344 660.058594 266.105469 660.164062 275.5625 660.265625 C 288.550781 660.402344 301.539062 660.507812 314.53125 660.59375 C 328.996094 660.6875 343.460938 660.761719 357.929688 660.816406 C 371.777344 660.867188 385.625 660.898438 399.472656 660.894531 C 410.707031 660.894531 421.9375 660.878906 433.171875 660.800781 C 434.285156 660.792969 435.402344 660.78125 436.515625 660.773438 C 437.46875 660.765625 437.472656 659.28125 436.515625 659.292969 Z M 306.011719 652.269531 C 311.714844 652.398438 317.421875 652.40625 323.125 652.445312 C 330.382812 652.496094 337.640625 652.53125 344.894531 652.597656 C 347.574219 652.621094 350.257812 652.644531 352.9375 652.703125 C 353.890625 652.722656 353.890625 651.242188 352.9375 651.222656 C 347.234375 651.09375 341.527344 651.085938 335.824219 651.046875 C 328.566406 651 321.3125 650.960938 314.054688 650.894531 C 311.375 650.871094 308.691406 650.851562 306.011719 650.789062 C 305.058594 650.769531 305.058594 652.25 306.011719 652.269531 Z M 550.234375 660.480469 C 543.046875 660.480469 535.859375 660.347656 528.671875 660.285156 C 527.300781 660.273438 525.925781 660.257812 524.546875 660.257812 C 523.597656 660.257812 523.59375 661.738281 524.546875 661.738281 C 531.734375 661.742188 538.921875 661.871094 546.109375 661.933594 C 547.484375 661.949219 548.859375 661.964844 550.234375 661.964844 C 551.1875 661.964844 551.1875 660.480469 550.234375 660.480469 Z M 365.207031 409.753906 C 365.054688 405.078125 365.753906 400.402344 366.828125 395.863281 C 368.019531 390.828125 369.695312 385.890625 371.8125 381.167969 C 372.972656 378.578125 374.269531 376.046875 375.726562 373.609375 C 376.214844 372.789062 374.9375 372.046875 374.449219 372.863281 C 371.785156 377.316406 369.640625 382.085938 367.910156 386.976562 C 366.191406 391.839844 364.875 396.871094 364.183594 401.988281 C 363.835938 404.5625 363.640625 407.15625 363.730469 409.753906 C 363.761719 410.707031 365.242188 410.710938 365.207031 409.753906 Z M 361.632812 407.0625 C 360.410156 404.667969 359.492188 402.113281 358.910156 399.488281 C 358.328125 396.851562 358.082031 394.066406 358.617188 391.402344 C 358.804688 390.472656 357.378906 390.074219 357.191406 391.007812 C 356.054688 396.664062 357.789062 402.777344 360.355469 407.808594 C 360.789062 408.660156 362.066406 407.910156 361.632812 407.0625 Z M 446.191406 407.617188 C 447.390625 405.105469 448.507812 402.527344 449.03125 399.777344 C 449.550781 397.019531 449.554688 394.195312 449.574219 391.398438 C 449.578125 390.445312 448.101562 390.445312 448.09375 391.398438 C 448.074219 394.058594 448.101562 396.761719 447.601562 399.382812 C 447.105469 402.011719 446.058594 404.46875 444.914062 406.867188 C 444.503906 407.726562 445.777344 408.476562 446.191406 407.617188 Z M 367.550781 421.523438 C 367.550781 421.519531 367.550781 421.523438 367.554688 421.515625 C 367.558594 421.496094 367.585938 421.40625 367.597656 421.371094 C 367.613281 421.34375 367.648438 421.277344 367.65625 421.265625 C 367.695312 421.203125 367.734375 421.167969 367.796875 421.136719 C 367.824219 421.121094 367.835938 421.113281 367.835938 421.109375 C 367.84375 421.109375 367.855469 421.109375 367.882812 421.109375 C 367.921875 421.105469 367.984375 421.105469 368.03125 421.105469 C 368.136719 421.117188 368.253906 421.152344 368.359375 421.203125 C 368.679688 421.359375 368.921875 421.632812 369.105469 421.933594 C 369.328125 422.261719 369.753906 422.410156 370.117188 422.199219 C 370.457031 422 370.59375 421.527344 370.382812 421.183594 C 368.945312 419.0625 367.40625 417.011719 365.769531 415.035156 C 365.515625 414.730469 364.988281 414.773438 364.722656 415.035156 C 364.417969 415.34375 364.46875 415.777344 364.722656 416.085938 C 365.6875 417.25 366.605469 418.453125 367.496094 419.675781 C 367.304688 419.726562 367.113281 419.804688 366.929688 419.933594 C 365.953125 420.625 365.695312 422.234375 366.824219 422.917969 C 367.640625 423.410156 368.386719 422.132812 367.570312 421.640625 C 367.5625 421.632812 367.5625 421.636719 367.558594 421.632812 C 367.558594 421.632812 367.554688 421.628906 367.554688 421.628906 C 367.554688 421.628906 367.554688 421.628906 367.554688 421.625 C 367.550781 421.605469 367.546875 421.609375 367.542969 421.601562 C 367.546875 421.59375 367.546875 421.589844 367.550781 421.5625 C 367.550781 421.535156 367.550781 421.53125 367.550781 421.523438 Z M 440.035156 422.199219 C 440.398438 422.410156 440.820312 422.265625 441.046875 421.933594 C 441.222656 421.644531 441.449219 421.394531 441.75 421.226562 C 441.847656 421.171875 441.972656 421.125 442.070312 421.109375 C 442.132812 421.101562 442.207031 421.101562 442.269531 421.109375 C 442.296875 421.113281 442.304688 421.109375 442.316406 421.109375 C 442.320312 421.113281 442.328125 421.121094 442.355469 421.136719 C 442.410156 421.164062 442.464844 421.222656 442.476562 421.234375 C 442.503906 421.273438 442.523438 421.316406 442.546875 421.359375 C 442.550781 421.375 442.585938 421.464844 442.589844 421.484375 C 442.597656 421.507812 442.597656 421.507812 442.601562 421.519531 C 442.601562 421.527344 442.601562 421.53125 442.601562 421.5625 C 442.601562 421.589844 442.605469 421.59375 442.605469 421.601562 C 442.601562 421.609375 442.601562 421.605469 442.59375 421.628906 C 442.585938 421.632812 442.589844 421.632812 442.578125 421.640625 C 441.765625 422.132812 442.507812 423.414062 443.328125 422.917969 C 444.457031 422.238281 444.195312 420.625 443.222656 419.933594 C 443.035156 419.804688 442.847656 419.726562 442.652344 419.675781 C 443.546875 418.453125 444.460938 417.25 445.425781 416.085938 C 445.683594 415.777344 445.726562 415.339844 445.425781 415.035156 C 445.164062 414.773438 444.636719 414.726562 444.378906 415.035156 C 442.746094 417.011719 441.203125 419.0625 439.769531 421.183594 C 439.558594 421.523438 439.695312 422 440.035156 422.199219 Z M 442.589844 421.640625 C 442.585938 421.644531 442.578125 421.652344 442.5625 421.683594 C 442.5625 421.671875 442.574219 421.65625 442.589844 421.640625 Z M 393.882812 455.210938 C 396.453125 456.070312 399.105469 456.667969 401.789062 457.011719 C 407.023438 457.675781 412.226562 456.734375 417.15625 454.933594 C 419.527344 454.066406 421.933594 453.03125 423.976562 451.523438 C 424.734375 450.964844 424 449.675781 423.230469 450.246094 C 421.515625 451.511719 419.539062 452.433594 417.558594 453.203125 C 415.191406 454.125 412.734375 454.84375 410.234375 455.308594 C 405.238281 456.238281 400.203125 455.589844 395.367188 454.128906 C 392.976562 453.410156 390.570312 452.503906 388.488281 451.097656 C 387.695312 450.5625 386.957031 451.847656 387.742188 452.375 C 389.609375 453.636719 391.753906 454.5 393.882812 455.210938 Z M 406.792969 425.066406 C 407.109375 417.992188 407.179688 410.925781 406.972656 403.847656 C 406.945312 402.894531 405.464844 402.890625 405.492188 403.847656 C 405.699219 410.925781 405.628906 417.992188 405.3125 425.066406 C 405.273438 426.019531 406.753906 426.019531 406.792969 425.066406 Z M 418.613281 402.003906 C 421.058594 401.644531 423.417969 403.175781 424.710938 405.191406 C 425.222656 405.992188 426.503906 405.25 425.988281 404.445312 C 424.304688 401.816406 421.382812 400.109375 418.222656 400.574219 C 417.824219 400.632812 417.605469 401.132812 417.703125 401.484375 C 417.820312 401.910156 418.21875 402.0625 418.613281 402.003906 Z M 410.320312 358.679688 C 410.414062 358.710938 410.511719 358.746094 410.605469 358.78125 C 410.644531 358.796875 410.683594 358.808594 410.71875 358.824219 C 410.71875 358.824219 410.785156 358.851562 410.8125 358.863281 C 410.84375 358.878906 410.878906 358.894531 410.878906 358.894531 C 410.917969 358.910156 410.953125 358.925781 410.988281 358.945312 C 411.082031 358.988281 411.171875 359.03125 411.261719 359.078125 C 411.605469 359.257812 411.933594 359.460938 412.246094 359.6875 C 412.28125 359.710938 412.3125 359.734375 412.34375 359.757812 C 412.359375 359.769531 412.355469 359.765625 412.367188 359.773438 C 412.4375 359.828125 412.507812 359.886719 412.578125 359.945312 C 412.722656 360.070312 412.867188 360.199219 413.003906 360.332031 C 413.144531 360.46875 413.277344 360.609375 413.402344 360.753906 C 413.472656 360.828125 413.535156 360.90625 413.601562 360.984375 C 413.625 361.015625 413.652344 361.046875 413.675781 361.078125 C 413.570312 360.949219 413.695312 361.105469 413.710938 361.125 C 413.941406 361.433594 414.359375 361.621094 414.722656 361.390625 C 415.027344 361.191406 415.234375 360.707031 414.988281 360.375 C 413.902344 358.921875 412.4375 357.835938 410.714844 357.25 C 410.347656 357.125 409.886719 357.394531 409.800781 357.769531 C 409.710938 358.179688 409.925781 358.546875 410.320312 358.679688 Z M 420.289062 363.597656 C 420.351562 363.542969 420.417969 363.492188 420.484375 363.4375 C 420.503906 363.425781 420.628906 363.335938 420.644531 363.324219 C 420.796875 363.214844 420.957031 363.113281 421.121094 363.019531 C 421.265625 362.9375 421.414062 362.863281 421.5625 362.792969 C 421.585938 362.78125 421.839844 362.671875 421.710938 362.722656 C 421.796875 362.6875 421.886719 362.652344 421.976562 362.621094 C 422.734375 362.347656 423.25 362.265625 424.003906 362.265625 C 424.390625 362.269531 424.761719 361.925781 424.742188 361.527344 C 424.726562 361.125 424.417969 360.789062 424.003906 360.785156 C 422.253906 360.78125 420.570312 361.421875 419.242188 362.550781 C 418.945312 362.804688 418.964844 363.34375 419.242188 363.597656 C 419.554688 363.886719 419.972656 363.867188 420.289062 363.597656 Z M 412.808594 365.417969 C 412.292969 365.417969 411.777344 365.417969 411.261719 365.417969 C 411.074219 365.417969 410.875 365.5 410.738281 365.632812 C 410.609375 365.761719 410.515625 365.972656 410.523438 366.15625 C 410.539062 366.558594 410.847656 366.898438 411.261719 366.898438 C 411.777344 366.898438 412.292969 366.898438 412.808594 366.898438 C 412.996094 366.898438 413.195312 366.816406 413.332031 366.679688 C 413.457031 366.554688 413.554688 366.34375 413.546875 366.15625 C 413.527344 365.757812 413.222656 365.417969 412.808594 365.417969 Z M 392.878906 421.816406 C 394.320312 421.816406 395.484375 420.019531 395.484375 417.804688 C 395.484375 415.589844 394.320312 413.796875 392.878906 413.796875 C 391.441406 413.796875 390.273438 415.589844 390.273438 417.804688 C 390.273438 420.019531 391.441406 421.816406 392.878906 421.816406 Z M 418.941406 421.816406 C 420.382812 421.816406 421.546875 420.019531 421.546875 417.804688 C 421.546875 415.589844 420.382812 413.796875 418.941406 413.796875 C 417.503906 413.796875 416.335938 415.589844 416.335938 417.804688 C 416.335938 420.019531 417.503906 421.816406 418.941406 421.816406 Z M 395.539062 433.386719 C 397.371094 436.050781 400.273438 437.539062 403.4375 437.972656 C 406.929688 438.453125 410.660156 437.949219 413.496094 435.726562 C 414.355469 435.050781 415.105469 434.238281 415.6875 433.3125 C 416.199219 432.503906 414.917969 431.761719 414.410156 432.566406 C 413.375 434.207031 411.625 435.464844 409.726562 436.082031 C 406.675781 437.078125 402.863281 436.894531 399.992188 435.40625 C 398.726562 434.75 397.625 433.816406 396.816406 432.636719 C 396.28125 431.859375 394.996094 432.597656 395.539062 433.386719 Z M 271.222656 625.15625 C 271.230469 625.15625 271.238281 625.15625 271.246094 625.15625 L 277.234375 624.964844 C 277.640625 624.949219 277.960938 624.609375 277.949219 624.199219 C 277.933594 623.789062 277.621094 623.488281 277.183594 623.480469 L 271.199219 623.675781 C 270.789062 623.6875 270.472656 624.03125 270.484375 624.441406 C 270.496094 624.839844 270.824219 625.15625 271.222656 625.15625 Z M 268.875 630.566406 L 273.316406 630.757812 C 273.324219 630.757812 273.335938 630.757812 273.347656 630.757812 C 273.742188 630.757812 274.070312 630.449219 274.085938 630.050781 C 274.105469 629.644531 273.789062 629.296875 273.378906 629.277344 L 268.9375 629.085938 C 268.574219 629.046875 268.1875 629.382812 268.167969 629.792969 C 268.148438 630.203125 268.46875 630.546875 268.875 630.566406 Z M 267.167969 635.589844 L 275.859375 635.589844 C 276.265625 635.589844 276.597656 635.257812 276.597656 634.851562 C 276.597656 634.441406 276.265625 634.109375 275.859375 634.109375 L 267.167969 634.109375 C 266.761719 634.109375 266.429688 634.441406 266.429688 634.851562 C 266.429688 635.257812 266.761719 635.589844 267.167969 635.589844 Z M 267.167969 635.589844 " fill-opacity="1" fill-rule="nonzero"/></svg>