<svg width="563" height="560" viewBox="0 0 563 560" fill="none" xmlns="http://www.w3.org/2000/svg">
<path d="M327.586 207.427C319.71 208.287 312.773 213.2 310.78 219.327C308.988 224.836 310.956 230.626 313.017 235.721C313.867 247.556 314.719 259.389 315.224 272.354C331.96 276.569 350.33 276.563 367.069 272.224C367.788 260.311 368.038 248.342 366.355 236.492C365.608 231.214 364.457 225.914 361.859 221.021C359.26 216.127 355.101 211.629 349.375 208.902C343.646 206.178 336.519 206.452 327.586 207.429V207.427Z" fill="#6B2537"/>
<path d="M326.671 248.755C327.67 252.575 328.67 256.397 329.598 259.981C321.217 263.984 310.297 264.613 303.436 270.157C300.316 272.676 298.394 275.969 296.778 279.265C293.74 285.475 291.598 291.937 289.567 298.403C287.734 304.245 285.972 310.21 286.426 316.223C286.64 319.098 287.512 322.162 290.21 324.081C293.971 326.751 299.702 326.248 304.568 324.487C303.113 332.731 302.17 341.034 301.82 349.207C308.654 352.167 316.702 352.683 324.478 352.796C332.615 352.912 340.754 352.653 348.883 352.338C357.819 351.988 366.814 351.562 375.296 349.927C375.136 342.831 374.975 335.734 374.587 328.246C377.492 328.296 380.433 328.343 383.265 327.833C386.099 327.323 388.863 326.194 390.546 324.307C392.262 322.382 392.672 319.926 392.903 317.573C394 306.412 392.246 295.145 388.689 284.315C387.467 280.59 385.993 276.839 383.229 273.678C377.658 267.298 367.873 264.328 358.378 261.724C355.603 260.664 352.72 259.78 349.223 258.965C347.32 252.849 345.416 246.735 343.573 240.299C340.011 240.439 336.397 240.586 333.014 241.487C329.631 242.388 325.493 244.246 326.671 248.755Z" fill="#FFAD95"/>
<mask id="mask0_614_204" style="mask-type:luminance" maskUnits="userSpaceOnUse" x="286" y="254" width="108" height="99">
<path d="M286.249 254.973H393.283V352.837H286.249V254.973Z" fill="white"/>
</mask>
<g mask="url(#mask0_614_204)">
<mask id="mask1_614_204" style="mask-type:luminance" maskUnits="userSpaceOnUse" x="286" y="240" width="108" height="113">
<path d="M326.671 248.755C327.67 252.575 328.67 256.397 329.598 259.981C321.217 263.984 310.297 264.613 303.436 270.157C300.316 272.676 298.394 275.969 296.778 279.265C293.74 285.475 291.598 291.937 289.567 298.403C287.734 304.245 285.972 310.21 286.426 316.223C286.64 319.098 287.512 322.162 290.21 324.081C293.971 326.751 299.702 326.248 304.568 324.487C303.113 332.731 302.17 341.034 301.82 349.207C308.654 352.167 316.702 352.683 324.478 352.796C332.615 352.912 340.754 352.653 348.883 352.338C357.819 351.988 366.814 351.562 375.296 349.927C375.136 342.831 374.975 335.734 374.587 328.246C377.492 328.296 380.433 328.343 383.265 327.833C386.099 327.323 388.863 326.194 390.546 324.307C392.262 322.382 392.672 319.926 392.903 317.573C394 306.412 392.246 295.145 388.689 284.315C387.467 280.59 385.993 276.839 383.229 273.678C377.658 267.298 367.873 264.328 358.378 261.724C355.603 260.664 352.72 259.78 349.223 258.965C347.32 252.849 345.416 246.735 343.573 240.299C340.011 240.439 336.397 240.586 333.014 241.487C329.631 242.388 325.493 244.246 326.671 248.755Z" fill="white"/>
</mask>
<g mask="url(#mask1_614_204)">
<path d="M322.344 259.681C321.945 267.934 327.744 275.489 345.634 268.631C363.521 261.772 396.914 255.435 396.914 255.435L400.343 359.035L286.353 359.951L273.985 313.114L298.22 257.25L322.344 259.681Z" fill="#007A7C"/>
</g>
</g>
<path d="M367.709 307.077C367.381 307.077 367.112 306.87 367.101 306.606C366.906 300.764 366.498 294.849 365.89 289.022C365.86 288.756 366.11 288.523 366.444 288.499C366.778 288.48 367.074 288.677 367.101 288.942C367.712 294.786 368.122 300.719 368.317 306.581C368.326 306.848 368.062 307.069 367.726 307.077C367.72 307.077 367.715 307.077 367.709 307.077Z" fill="#6B2537"/>
<path d="M309.286 303.817C309.104 303.817 308.925 303.752 308.805 303.629C306.473 301.244 305.466 297.895 305.976 294.201C306.424 290.949 307.901 287.881 309.329 284.915C309.452 284.665 309.802 284.541 310.117 284.636C310.429 284.731 310.587 285.012 310.467 285.261C309.066 288.171 307.616 291.178 307.185 294.307C306.709 297.748 307.627 300.847 309.764 303.033C309.97 303.245 309.924 303.549 309.658 303.714C309.547 303.783 309.416 303.815 309.286 303.815V303.817Z" fill="#6B2537"/>
<path d="M263.412 289.69C260.906 292.915 258.718 296.439 256.212 299.665C256.095 296.208 255.536 292.585 255.066 289.275C250.47 289.999 245.962 291.075 241.007 292.697C239.498 303.683 240.79 314.907 244.784 325.491L245.126 326.941C252.758 323.843 258.588 318.422 262.734 312.455C266.88 306.486 269.494 299.935 271.539 293.73C278.929 290.608 285.138 285.747 288.614 279.68C289.814 278.879 290.775 277.846 291.394 276.699C291.641 276.239 291.826 275.688 291.513 275.253C291.372 275.057 291.139 274.901 291.057 274.683C290.949 274.391 291.147 274.093 291.261 273.804C291.546 273.08 291.266 272.233 290.571 271.715C289.874 271.196 288.796 271.03 287.262 271.259C286.713 270.548 285.497 270.317 284.473 270.5C283.45 270.682 282.573 271.187 281.726 271.682C278.546 273.542 275.367 275.402 271.742 277.159C271.658 274.839 271.384 272.196 269.076 270.773C268.373 270.338 267.249 270.098 266.66 270.632C266.317 270.943 266.298 271.397 266.279 271.812C266.133 274.776 264.884 277.623 263.966 280.497C263.046 283.37 262.459 286.449 263.613 289.269L263.412 289.692V289.69Z" fill="#FFAD95"/>
<path d="M273.985 285.846C273.719 285.846 273.477 285.708 273.401 285.496C272.652 283.433 271.672 281.407 270.485 279.477C270.339 279.235 270.464 278.946 270.765 278.829C271.066 278.71 271.43 278.812 271.579 279.052C272.796 281.031 273.8 283.109 274.569 285.228C274.664 285.486 274.476 285.753 274.153 285.827C274.096 285.842 274.042 285.846 273.985 285.846Z" fill="#6B2537"/>
<path d="M279.341 277.261C279.168 277.261 278.994 277.2 278.872 277.086C278.657 276.878 278.695 276.573 278.953 276.403L286.878 271.183C287.136 271.015 287.519 271.043 287.734 271.248C287.948 271.453 287.913 271.76 287.652 271.928L279.73 277.148C279.616 277.224 279.477 277.258 279.341 277.258V277.261Z" fill="#6B2537"/>
<path d="M283.674 280.227C283.514 280.227 283.351 280.175 283.232 280.076C283.001 279.881 283.012 279.577 283.254 279.391L290.764 273.709C291.008 273.525 291.393 273.531 291.624 273.726C291.855 273.92 291.847 274.225 291.603 274.411L284.093 280.093C283.976 280.181 283.824 280.227 283.674 280.227Z" fill="#6B2537"/>
<path d="M249.228 309.869C249.177 309.869 249.122 309.865 249.068 309.852C248.742 309.78 248.555 309.512 248.644 309.255C249.532 306.699 250.806 304.232 252.429 301.916C252.595 301.683 252.964 301.598 253.257 301.73C253.551 301.86 253.656 302.154 253.491 302.387C251.916 304.636 250.678 307.032 249.815 309.512C249.741 309.728 249.497 309.869 249.228 309.869Z" fill="#6B2537"/>
<path d="M191.076 317.915C188.112 328.607 185.597 339.377 183.086 351.162C205.76 353.69 228.949 353.249 251.012 349.073C250.121 337.21 248.017 325.405 244.281 313.756C227.027 308.333 206.713 309.493 191.079 317.915H191.076Z" fill="#007A7C"/>
<path d="M201.023 280.104C193.488 281.039 185.433 278.641 180.516 274C175.599 269.357 173.991 262.634 176.419 256.878C178.045 253.024 181.355 249.513 181.471 245.449C181.553 242.731 180.165 240.076 180.361 237.363C180.559 234.599 182.375 232.074 184.452 229.855C186.53 227.634 188.93 225.584 190.597 223.153C192.829 219.897 193.667 216.08 196.296 213.016C200.222 208.44 208.161 206.34 214.902 207.718C220.311 206.716 225.963 206.087 231.407 206.967C236.851 207.844 242.088 210.443 244.41 214.461C247.499 219.815 244.931 226.394 247.877 231.799C249.625 235.003 253.193 237.527 254.249 240.917C255.932 246.305 250.768 251.551 250.421 257.094C250.166 261.171 252.536 265.095 252.642 269.174C252.783 274.523 248.841 279.635 243.296 282.662C237.752 285.686 230.815 286.797 224.098 286.583C217.381 286.369 210.824 284.913 201.023 280.106V280.104Z" fill="#6B2537"/>
<path d="M343.114 242.502C341.303 245.346 338.221 247.603 334.713 249.15C331.205 250.695 327.282 251.566 323.326 252.076C320.739 252.411 317.953 252.573 315.618 251.624C312.162 250.215 310.802 246.871 310.139 243.825C309.3 239.966 309.042 236.032 309.284 232.121C309.466 229.207 309.935 226.266 311.304 223.561C312.675 220.857 315.018 218.385 318.366 216.775C322.455 220.612 327.304 223.879 332.131 227.126C335.4 229.326 338.666 231.523 342.215 233.536C342.788 233.07 343.369 232.597 344.075 232.264C344.778 231.933 345.636 231.752 346.426 231.916C347.496 232.139 348.229 232.929 348.658 233.742C349.486 235.308 349.481 237.14 348.644 238.704C347.805 240.269 346.149 241.539 343.114 242.502Z" fill="#FFAD95"/>
<path d="M343.33 240.227C343.102 240.227 342.885 240.126 342.779 239.953C342.635 239.711 342.763 239.422 343.067 239.307C343.499 239.143 344.085 238.851 344.414 238.393C344.693 238.006 344.731 237.544 344.509 237.216C344.297 236.902 343.789 236.721 343.423 236.827C343.181 236.898 342.907 236.84 342.744 236.68C342.578 236.518 342.562 236.293 342.698 236.118C343.398 235.222 344.245 234.403 345.217 233.685C345.464 233.504 345.85 233.515 346.075 233.711C346.306 233.908 346.29 234.213 346.045 234.394C345.415 234.859 344.843 235.371 344.335 235.919C344.848 236.06 345.307 236.352 345.578 236.756C346.002 237.382 345.961 238.194 345.467 238.875C345.084 239.409 344.435 239.86 343.591 240.18C343.507 240.212 343.417 240.227 343.327 240.227H343.33Z" fill="#6B2537"/>
<path d="M317.35 240.694C317.258 240.694 317.166 240.677 317.079 240.642C316.511 240.413 315.868 240.154 315.352 239.746C314.717 239.24 314.412 238.579 314.537 237.978C314.676 237.311 315.268 236.857 315.789 236.457C315.87 236.395 315.949 236.334 316.028 236.272C317.261 235.291 318.007 233.934 318.081 232.547C318.094 232.281 318.376 232.069 318.713 232.082C319.05 232.093 319.31 232.32 319.297 232.588C319.213 234.215 318.336 235.807 316.889 236.959C316.804 237.023 316.72 237.088 316.633 237.155C316.21 237.479 315.811 237.786 315.737 238.138C315.667 238.482 315.936 238.84 316.213 239.061C316.59 239.361 317.117 239.573 317.627 239.778C317.926 239.897 318.048 240.189 317.896 240.428C317.787 240.597 317.576 240.694 317.353 240.694H317.35Z" fill="#6B2537"/>
<path d="M304.361 309.128C301.337 313.801 300.883 319.487 303.134 325.105C313.479 325.035 323.799 323.262 332.503 320.051C344.297 323.145 356.494 325.269 368.625 326.526C372.559 321.739 372.363 315.026 366.716 310.303C366.491 307.87 363.645 306.015 360.661 305.457C357.68 304.902 354.566 305.345 351.539 305.721C342.896 306.794 334.143 307.304 324.657 307.265C321.857 306.222 319.775 304.128 316.856 303.316C315.531 302.949 314.108 302.867 312.705 302.843C309.191 302.78 305.667 303.048 302.23 303.638C301.014 303.848 299.748 304.122 298.847 304.807C298.508 305.066 298.22 305.405 298.22 305.781C298.225 306.423 299.059 306.866 299.849 306.995C300.639 307.123 301.478 307.062 302.233 307.287C302.987 307.512 303.634 308.205 304.364 309.128H304.361Z" fill="#FFAD95"/>
<path d="M304.128 309.627C303.818 309.627 303.555 309.441 303.525 309.19C303.49 308.925 303.734 308.687 304.068 308.661L321.26 307.265C321.594 307.239 321.892 307.432 321.925 307.698C321.96 307.963 321.716 308.201 321.382 308.229L304.19 309.623C304.168 309.625 304.149 309.627 304.128 309.627Z" fill="#6B2537"/>
<path d="M331.84 320.546C331.602 320.546 331.376 320.438 331.276 320.254C331.14 320.008 331.284 319.723 331.596 319.617C334.756 318.545 337.735 317.048 340.613 315.599C341.387 315.212 342.182 314.81 342.972 314.421C346.665 312.611 350.705 310.841 355.242 310.163C358.989 309.601 362.801 309.83 366.49 310.05C366.827 310.07 367.082 310.303 367.058 310.569C367.031 310.837 366.735 311.036 366.395 311.016C362.79 310.8 359.059 310.578 355.473 311.113C351.134 311.764 347.213 313.481 343.624 315.244C342.839 315.629 342.046 316.028 341.278 316.415C338.357 317.884 335.338 319.403 332.085 320.507C332.003 320.535 331.922 320.546 331.84 320.546Z" fill="#6B2537"/>
<path d="M295.45 316.525C295.404 316.525 295.355 316.521 295.309 316.512C294.98 316.452 294.779 316.19 294.858 315.929C295.254 314.6 296.169 313.291 297.581 312.04C298.808 310.949 300.247 310.035 301.64 309.152C301.904 308.985 302.286 309.018 302.495 309.227C302.704 309.437 302.664 309.739 302.4 309.908C301.046 310.768 299.647 311.656 298.488 312.686C297.212 313.816 296.389 314.983 296.042 316.154C295.974 316.376 295.724 316.527 295.45 316.527V316.525Z" fill="#6B2537"/>
<path d="M212.456 235.107C212.206 232.659 214.049 230.371 216.259 228.66C218.469 226.949 221.109 225.597 223.161 223.767C225.216 221.937 226.658 219.389 225.776 217.039C231.059 217.054 236.367 217.732 239.34 220.714C241.214 222.594 241.811 225.067 242.202 227.446C242.862 231.467 243.103 235.528 242.922 239.581C242.799 242.256 242.452 245.041 240.668 247.312C238.626 249.915 234.852 251.494 231.008 251.756C227.166 252.017 223.297 251.06 220.009 249.453C216.724 247.848 213.976 245.622 211.041 242.967C208.464 243.959 205.038 243.226 203.431 241.34C201.826 239.454 202.236 236.65 204.346 235.109C205.323 234.396 206.621 233.949 207.946 233.949C209.271 233.949 210.604 234.42 212.456 235.105V235.107Z" fill="#FFAD95"/>
<path d="M209.293 240.472C208.967 240.472 208.698 240.269 208.687 240.007C208.617 238.629 207.362 237.339 205.703 236.939C205.383 236.861 205.201 236.591 205.299 236.336C205.397 236.079 205.736 235.935 206.056 236.012C208.196 236.527 209.814 238.19 209.904 239.968C209.915 240.236 209.654 240.459 209.317 240.472C209.312 240.472 209.301 240.472 209.295 240.472H209.293Z" fill="#6B2537"/>
<path d="M235.645 239.558C235.46 239.558 235.278 239.491 235.159 239.363C234.958 239.149 235.012 238.847 235.281 238.685C235.759 238.4 236.253 238.106 236.612 237.749C236.818 237.544 237.155 237.134 237.106 236.676C237.06 236.222 236.652 235.805 236.221 235.362C236.088 235.228 235.952 235.09 235.824 234.947C234.735 233.733 234.171 232.117 234.144 230.14C234.141 229.872 234.41 229.652 234.746 229.65H234.752C235.086 229.65 235.357 229.864 235.36 230.129C235.384 231.903 235.873 233.335 236.815 234.383C236.927 234.509 237.049 234.636 237.179 234.768C237.679 235.276 238.243 235.852 238.319 236.593C238.382 237.181 238.113 237.806 237.562 238.354C237.106 238.806 236.525 239.154 236.009 239.46C235.9 239.525 235.773 239.558 235.645 239.558Z" fill="#6B2537"/>
<mask id="mask2_614_204" style="mask-type:luminance" maskUnits="userSpaceOnUse" x="168" y="239" width="90" height="88">
<path d="M168.954 239.486H257.868V326.874H168.954V239.486Z" fill="white"/>
</mask>
<g mask="url(#mask2_614_204)">
<path d="M228.692 248.869C227.836 250.926 226.978 253.009 226.772 255.169C226.566 257.328 227.082 259.609 228.743 261.327C230.712 263.362 233.964 264.317 237.114 264.87C240.266 265.421 243.546 265.689 246.47 266.778C251.327 268.588 254.547 272.49 256.054 276.586C257.564 280.685 257.586 285.023 257.713 289.396C256.215 290.247 254.637 291.012 252.962 291.727C252.37 295.629 250.03 299.347 246.275 301.836C243.592 306.587 249.188 312.105 247.597 317.158C247.352 317.93 246.942 318.671 246.372 319.323C244.716 321.218 241.903 322.22 239.177 323.003C223.536 327.49 205.95 327.546 189.138 323.026C187.276 316.169 185.937 309.223 184.767 302.407C179.614 301.894 174.512 301.069 168.995 300.348C169.12 292.92 170.779 285.509 173.888 278.505C175.321 275.282 177.227 271.974 180.77 270.042C185.956 267.214 193.094 268.113 198.796 266.004C202.608 264.594 205.497 261.917 207.462 258.959C209.428 256.001 211.171 247.439 211.388 239.813C216.859 242.576 222.33 245.339 228.692 248.867V248.869Z" fill="#FFAD95"/>
</g>
<mask id="mask3_614_204" style="mask-type:luminance" maskUnits="userSpaceOnUse" x="168" y="258" width="90" height="69">
<path d="M168.954 258.844H257.721V326.431H168.954V258.844Z" fill="white"/>
</mask>
<g mask="url(#mask3_614_204)">
<mask id="mask4_614_204" style="mask-type:luminance" maskUnits="userSpaceOnUse" x="168" y="239" width="90" height="88">
<path d="M228.692 248.869C227.836 250.926 226.978 253.009 226.772 255.169C226.566 257.328 227.082 259.609 228.743 261.327C230.712 263.362 233.964 264.317 237.114 264.87C240.266 265.421 243.546 265.689 246.47 266.778C251.327 268.588 254.547 272.49 256.054 276.586C257.564 280.685 257.586 285.023 257.713 289.396C256.215 290.247 254.637 291.012 252.962 291.727C252.37 295.629 250.03 299.347 246.275 301.836C243.592 306.587 249.188 312.105 247.597 317.158C247.352 317.93 246.942 318.671 246.372 319.323C244.716 321.218 241.903 322.22 239.177 323.003C223.536 327.49 205.95 327.546 189.138 323.026C187.276 316.169 185.937 309.223 184.767 302.407C179.614 301.894 174.512 301.069 168.995 300.348C169.12 292.92 170.779 285.509 173.888 278.505C175.321 275.282 177.227 271.974 180.77 270.042C185.956 267.214 193.094 268.113 198.796 266.004C202.608 264.594 205.497 261.917 207.462 258.959C209.428 256.001 211.171 247.439 211.388 239.813C216.859 242.576 222.33 245.339 228.692 248.867V248.869Z" fill="white"/>
</mask>
<g mask="url(#mask4_614_204)">
<path d="M190.034 262.457C200.978 276.558 215.556 281.167 223.416 283.705C231.276 286.242 237.173 261.737 237.173 261.737L273.984 258.896L279.341 345.74L158.743 339.846L156.66 270.323L190.034 262.457Z" fill="#FFCB30"/>
</g>
</g>
<path d="M171.39 297.999C171.623 306.792 171.862 315.635 173.888 324.284C174.515 326.961 175.647 329.961 178.745 331.122C181.745 332.247 185.275 331.139 188.174 329.86C197.848 325.597 205.934 319.418 213.207 312.991C221.874 312.515 230.25 309.268 235.39 303.904C236.402 303.379 237.418 302.823 238.186 302.08C238.955 301.337 239.46 300.371 239.294 299.416C239.09 298.258 237.926 297.316 236.582 296.85C235.235 296.383 233.728 296.318 232.259 296.331C227.964 296.372 223.677 297.042 219.088 298.379C220.009 296.969 220.641 295.439 220.956 293.87C221.095 293.183 221.059 292.315 220.28 292.002C219.403 291.652 218.445 292.313 217.839 292.926C214.402 296.396 211.714 300.335 210.576 303.919C204.698 306.356 190.037 313.531 190.037 313.531L188.63 300.302C188.63 300.302 178.332 299.319 171.392 297.997L171.39 297.999Z" fill="#FFAD95"/>
<path d="M251.368 289.34C251.07 289.34 250.809 289.165 250.766 288.923C250.16 285.464 249.164 282.024 247.806 278.704C247.7 278.449 247.877 278.177 248.194 278.094C248.515 278.01 248.857 278.151 248.963 278.403C250.342 281.78 251.355 285.274 251.971 288.791C252.017 289.055 251.784 289.301 251.453 289.338C251.423 289.34 251.396 289.342 251.366 289.342L251.368 289.34Z" fill="#6B2537"/>
<path d="M225.657 300.596C225.396 300.596 225.157 300.462 225.076 300.255C224.978 300 225.157 299.727 225.477 299.65L236.995 296.817C237.315 296.739 237.657 296.882 237.755 297.137C237.855 297.392 237.676 297.664 237.356 297.744L225.836 300.574C225.776 300.589 225.716 300.596 225.657 300.596Z" fill="#6B2537"/>
<path d="M227.733 304.182C227.489 304.182 227.258 304.064 227.163 303.869C227.044 303.621 227.201 303.34 227.516 303.245L238.743 299.825C239.055 299.73 239.408 299.853 239.527 300.103C239.647 300.352 239.489 300.633 239.177 300.728L227.95 304.15C227.877 304.172 227.804 304.182 227.73 304.182H227.733Z" fill="#6B2537"/>
<path d="M228.509 307.263C228.284 307.263 228.069 307.164 227.964 306.993C227.82 306.758 227.934 306.475 228.221 306.352L228.572 306.202C228.642 306.172 228.716 306.153 228.792 306.146L234.667 304.046C234.974 303.938 235.335 304.046 235.473 304.29C235.609 304.535 235.473 304.822 235.167 304.93L228.756 307.22C228.675 307.25 228.591 307.263 228.507 307.263H228.509Z" fill="#6B2537"/>
<path d="M192.622 299.734C192.6 299.734 192.576 299.734 192.552 299.73C192.218 299.699 191.979 299.46 192.017 299.194L193.534 288.774C193.572 288.508 193.874 288.318 194.208 288.35C194.542 288.381 194.781 288.62 194.743 288.886L193.225 299.306C193.19 299.552 192.926 299.734 192.622 299.734Z" fill="#6B2537"/>
<path d="M178.368 320.952C178.226 320.952 178.085 320.915 177.971 320.835C177.716 320.66 177.689 320.354 177.906 320.153C181.197 317.122 185.291 314.538 189.752 312.684C190.051 312.561 190.417 312.654 190.572 312.889C190.729 313.127 190.613 313.419 190.317 313.542C185.989 315.339 182.017 317.843 178.826 320.784C178.707 320.896 178.539 320.952 178.365 320.952H178.368Z" fill="#6B2537"/>
<path d="M235.879 226.569C235.887 227.427 237.709 227.353 239.952 227.34C242.197 227.325 244.019 227.373 244.008 226.515C244 225.657 242.17 224.724 239.924 224.739C237.679 224.754 235.871 225.713 235.879 226.569Z" fill="#6B2537"/>
<path d="M242.394 230.853C242.432 231.093 242.424 231.328 242.367 231.557C242.31 231.789 242.21 231.998 242.066 232.186C241.919 232.374 241.743 232.525 241.531 232.64C241.319 232.757 241.091 232.826 240.847 232.852C240.602 232.878 240.358 232.858 240.116 232.789C239.875 232.722 239.655 232.612 239.454 232.461C239.253 232.309 239.085 232.13 238.954 231.918C238.824 231.707 238.74 231.482 238.699 231.242C238.661 231.002 238.669 230.769 238.726 230.538C238.783 230.307 238.884 230.097 239.028 229.909C239.174 229.721 239.351 229.57 239.562 229.455C239.774 229.339 240.002 229.269 240.247 229.244C240.491 229.218 240.735 229.239 240.977 229.306C241.219 229.373 241.439 229.483 241.64 229.635C241.843 229.786 242.009 229.965 242.139 230.177C242.269 230.389 242.354 230.613 242.394 230.853Z" fill="#6B2537"/>
<path d="M229.846 227.98C230.259 228.773 228.548 229.269 226.474 229.952C224.397 230.635 222.743 231.244 222.333 230.453C221.921 229.661 223.151 228.232 225.225 227.55C227.299 226.867 229.436 227.187 229.846 227.98Z" fill="#6B2537"/>
<path d="M230.109 233.269C230.152 233.508 230.147 233.744 230.093 233.975C230.041 234.206 229.943 234.416 229.802 234.606C229.658 234.794 229.484 234.947 229.275 235.066C229.066 235.183 228.838 235.256 228.594 235.284C228.35 235.312 228.105 235.295 227.864 235.228C227.622 235.163 227.397 235.057 227.193 234.908C226.989 234.759 226.821 234.58 226.688 234.37C226.552 234.161 226.465 233.936 226.422 233.696C226.376 233.459 226.381 233.223 226.435 232.992C226.487 232.759 226.585 232.549 226.729 232.361C226.87 232.171 227.046 232.018 227.255 231.901C227.464 231.782 227.69 231.711 227.934 231.683C228.179 231.653 228.423 231.672 228.665 231.737C228.909 231.802 229.132 231.91 229.335 232.059C229.539 232.208 229.707 232.387 229.84 232.597C229.976 232.806 230.065 233.031 230.109 233.269Z" fill="#6B2537"/>
<path d="M322.354 228.468C322.191 229.388 324.154 229.539 326.563 229.807C328.971 230.073 330.909 230.354 331.07 229.436C331.233 228.518 329.457 227.286 327.051 227.018C324.643 226.75 322.514 227.55 322.354 228.468Z" fill="#6B2537"/>
<path d="M325.748 231.62C326.014 231.622 326.272 231.674 326.516 231.776C326.764 231.877 326.981 232.022 327.168 232.208C327.355 232.394 327.497 232.607 327.597 232.849C327.698 233.091 327.746 233.344 327.744 233.606C327.741 233.865 327.687 234.118 327.581 234.357C327.478 234.599 327.328 234.811 327.138 234.995C326.945 235.178 326.728 235.319 326.478 235.416C326.231 235.515 325.973 235.563 325.705 235.561C325.439 235.561 325.181 235.509 324.936 235.407C324.689 235.306 324.472 235.161 324.285 234.975C324.097 234.79 323.956 234.576 323.856 234.334C323.755 234.092 323.706 233.839 323.709 233.577C323.712 233.316 323.766 233.065 323.872 232.823C323.975 232.584 324.124 232.372 324.315 232.188C324.507 232.005 324.725 231.864 324.974 231.765C325.221 231.668 325.479 231.618 325.748 231.62Z" fill="#6B2537"/>
<path d="M316.061 228.124C316.12 228.898 314.57 228.917 312.659 229.008C310.75 229.099 309.208 229.228 309.148 228.455C309.091 227.682 310.573 226.753 312.482 226.662C314.391 226.571 316.004 227.351 316.061 228.124Z" fill="#6B2537"/>
<path d="M314.534 233.247C314.537 233.491 314.493 233.727 314.404 233.951C314.311 234.178 314.184 234.377 314.015 234.55C313.847 234.723 313.654 234.856 313.434 234.952C313.214 235.044 312.986 235.092 312.747 235.094C312.509 235.094 312.278 235.049 312.058 234.956C311.838 234.863 311.642 234.731 311.471 234.558C311.303 234.388 311.17 234.189 311.078 233.964C310.985 233.739 310.939 233.504 310.937 233.26C310.937 233.016 310.98 232.782 311.07 232.556C311.159 232.331 311.289 232.13 311.458 231.957C311.623 231.784 311.819 231.65 312.039 231.557C312.259 231.462 312.487 231.415 312.726 231.415C312.965 231.413 313.193 231.458 313.415 231.551C313.635 231.644 313.831 231.776 314.002 231.948C314.17 232.119 314.301 232.318 314.393 232.543C314.488 232.769 314.534 233.003 314.534 233.247Z" fill="#6B2537"/>
<path d="M344.107 242.157C344.107 242.157 342.122 242.075 342.15 244.354C342.179 246.633 343.173 268.549 339.304 273.391C335.435 278.231 365.73 274.27 366.395 270.574C367.058 266.877 367.457 264.447 367.457 264.447L363.52 243.023L344.107 242.157Z" fill="#6B2537"/>
<path d="M234.097 245.929C231.442 245.929 230.177 244.775 229.585 243.807C228.963 242.794 228.955 241.79 228.955 241.746C228.955 241.612 229.028 241.481 229.153 241.39C229.281 241.299 229.449 241.254 229.62 241.265C229.666 241.269 234.426 241.606 236.959 241.185C237.928 241.025 238.423 241.357 238.629 241.571C239.09 242.044 239.066 242.818 238.561 243.641C237.912 244.695 236.354 245.929 234.097 245.929ZM230.239 242.273C230.307 242.589 230.438 243.002 230.693 243.41C231.336 244.438 232.482 244.959 234.097 244.959C235.792 244.959 236.97 244.021 237.467 243.215C237.793 242.684 237.782 242.282 237.668 242.165C237.584 242.079 237.293 242.12 237.206 242.133C235.091 242.483 231.722 242.356 230.239 242.276V242.273Z" fill="#6B2537"/>
<path d="M318.007 247.098C317.116 247.098 316.326 246.875 315.653 246.428C313.665 245.11 313.473 242.299 313.464 242.181C313.454 241.99 313.584 241.811 313.798 241.725C314.013 241.638 314.271 241.662 314.458 241.783C316.003 242.792 321.116 242.768 322.956 242.673C323.133 242.665 323.304 242.716 323.429 242.816C323.551 242.917 323.616 243.056 323.6 243.196C323.597 243.228 323.209 246.577 318.612 247.068C318.406 247.089 318.205 247.1 318.007 247.1V247.098ZM314.83 243.038C315.026 243.861 315.466 245.045 316.435 245.685C316.991 246.054 317.651 246.19 318.455 246.106C319.986 245.944 321.113 245.389 321.803 244.458C322.014 244.175 322.15 243.896 322.24 243.669C320.608 243.715 317.038 243.721 314.83 243.036V243.038Z" fill="#6B2537"/>
<path d="M329.237 251.473C329 251.473 328.775 251.363 328.677 251.177C328.547 250.931 328.688 250.648 329 250.544C334.346 248.74 338.506 246.229 338.549 246.203C338.815 246.041 339.198 246.082 339.402 246.296C339.606 246.508 339.554 246.813 339.288 246.975C339.114 247.081 334.96 249.585 329.473 251.434C329.397 251.462 329.315 251.473 329.237 251.473Z" fill="#6B2537"/>
<path d="M225.328 251.795C225.273 251.795 225.219 251.79 225.165 251.777C223.291 251.369 221.451 250.725 219.691 249.865C217.639 248.863 215.662 247.567 213.471 245.782C213.237 245.592 213.24 245.285 213.479 245.097C213.721 244.911 214.104 244.914 214.34 245.106C216.46 246.83 218.364 248.081 220.327 249.04C221.988 249.852 223.726 250.46 225.485 250.844C225.811 250.913 226.001 251.181 225.911 251.438C225.838 251.652 225.594 251.795 225.325 251.795H225.328Z" fill="#6B2537"/>
</svg>
